<svg xmlns="http://www.w3.org/2000/svg" viewBox="0 0 393.7 470.2"><style>path{fill:#000}@media (prefers-color-scheme:dark){path{fill:#fff}}</style><path d="M226.4 406.9c3.5.1 6.9.2 10.4.4 42.1 2.3 82.4 19.6 124.8 15.2 7.6-.8 15.3-.3 22.4 3.1 3.6 1.8 7.4 4.3 9.8 7.6-.3-.4-2.3-.5-2.8-.6-1.1-.2-2.2-.4-3.4-.6-2.2-.3-4.3-.6-6.5-.8-4.4-.3-8.8-.3-13.1 0-8.5.7-16.9 2.5-25.2 4.3-10.4 2.3-20.8 4.7-31.5 5.4-16 1-32.4-2.1-48.1 1.2-9 1.9-17.5 5.8-26.5 7.9-12 2.8-21.4-.9-32.6-4.5-1.9-.6-3.6-1.4-5.6-1.8 10 8.3 21.6 13.3 34.2 16.1 8 1.7 16.2 2.1 24.4 1.9 1.8-.1 21.8-1.7 21.8-1.7-6.4 1.9-20.6 6.8-27.2 8.1-22.2 4.4-43.7 1.3-64.8-6.4-11.5-4.2-23-8.4-34.4-12.7-16.2-6.1-32.9-8.2-50.2-7.6-17.8.6-35 6.4-53.2 5.5-17.3-.9-35-6.4-47.2-18.7-1.5-1.5-2.8-4.2-1.1-5.3.9-.6 2.2-.3 3.3 0 5.6 1.8 11.1 3.8 16.7 5.2 19.9 5.1 40.8 3 61-.9 47.6-9.1 95.7-21.1 144.6-20.3z"/><path d="M148.6 461c-1.7-.3-2.7-.3-3.6-.6-16.3-5.9-32.8-5.4-49.4-1.4-14.8 3.5-29.4 3.4-43.8-1.9-1.6-.6-3.1-1.3-4.7-2.8 1.2-.2 2.4-.6 3.7-.7 14.6-1.8 29.2-3.3 43.8-5.3 17.5-2.4 34.1-.9 49.3 8.9 1.2.7 2.3 1.5 3.4 2.3.3.1.5.5 1.3 1.5zM146.2 346.2l-2.8 26.7h107l-2.7-26.7zM138.8 418.1h116.1l-1.9-19.5H140.8zM232.1 191.2h-70l-2.8 26.7h75.5zM237.3 242.6h-80.5l-2.7 25.9h85.8zM242.6 295.2h-91.2l-2.5 24.7H245zM236.2 139.2v-10.7h-4.9v-21.2h-68.7v21.2h-5.1V139l7.6 12.1.9 1.6-1.3 13.4h64.9l-1.4-13.9.7-1.1zM200.5 88h4.8v16.2h-4.8zM157.2 88h4.7v16.2h-4.7zM211.3 88h4.8v16.2h-4.8zM222.1 88h4.8v16.2h-4.8zM233 88h4.2v16.2H233zM189.6 88h4.8v16.2h-4.8zM178.8 88h4.8v16.2h-4.8zM167.9 88h4.8v16.2h-4.8zM223.1 44.7h9.5L198 9.8V0h-1.7v9.7l-34.5 35h9.8v27.4H168v12.3h58.5V72.2h-3.3V44.7zm-12.4 27.5h-7.2v-5c0-3.5-2.8-6.3-6.3-6.3s-6.3 2.8-6.3 6.3v5h-7.1V44.7h26.8v27.5z"/></svg>

